<svg viewBox="0 0 200 270" xmlns="http://www.w3.org/2000/svg">
  <defs>
    <radialGradient id="bg" cx="50%" cy="36%" r="72%">
      <stop offset="0%" stop-color="#1e1206"/>
      <stop offset="100%" stop-color="#080502"/>
    </radialGradient>
  </defs>
  <rect width="200" height="270" fill="url(#bg)"/>
  <rect x="10" y="10" width="180" height="250" fill="none" stroke="#c89828" stroke-width="0.9" stroke-opacity="0.28"/>
  <rect x="14" y="14" width="172" height="242" fill="none" stroke="#c89828" stroke-width="0.4" stroke-opacity="0.12"/>
  <path d="M10 10 L10 24 M10 10 L24 10" stroke="#c89828" stroke-width="1.5" stroke-opacity="0.65" fill="none" stroke-linecap="round"/>
  <path d="M190 10 L190 24 M190 10 L176 10" stroke="#c89828" stroke-width="1.5" stroke-opacity="0.65" fill="none" stroke-linecap="round"/>
  <path d="M10 260 L10 246 M10 260 L24 260" stroke="#c89828" stroke-width="1.5" stroke-opacity="0.65" fill="none" stroke-linecap="round"/>
  <path d="M190 260 L190 246 M190 260 L176 260" stroke="#c89828" stroke-width="1.5" stroke-opacity="0.65" fill="none" stroke-linecap="round"/>
  <circle cx="100" cy="148" r="80" fill="none" stroke="#c89828" stroke-width="0.6" stroke-opacity="0.14"/>
  <circle cx="100" cy="148" r="65" fill="none" stroke="#c89828" stroke-width="0.4" stroke-opacity="0.09"/>
  <line x1="100.0" y1="68.0" x2="100.0" y2="75.0" stroke="#c89828" stroke-width="0.8" stroke-opacity="0.30"/><line x1="156.6" y1="91.4" x2="151.6" y2="96.4" stroke="#c89828" stroke-width="0.8" stroke-opacity="0.30"/><line x1="180.0" y1="148.0" x2="173.0" y2="148.0" stroke="#c89828" stroke-width="0.8" stroke-opacity="0.30"/><line x1="156.6" y1="204.6" x2="151.6" y2="199.6" stroke="#c89828" stroke-width="0.8" stroke-opacity="0.30"/><line x1="100.0" y1="228.0" x2="100.0" y2="221.0" stroke="#c89828" stroke-width="0.8" stroke-opacity="0.30"/><line x1="43.4" y1="204.6" x2="48.4" y2="199.6" stroke="#c89828" stroke-width="0.8" stroke-opacity="0.30"/><line x1="20.0" y1="148.0" x2="27.0" y2="148.0" stroke="#c89828" stroke-width="0.8" stroke-opacity="0.30"/><line x1="43.4" y1="91.4" x2="48.4" y2="96.4" stroke="#c89828" stroke-width="0.8" stroke-opacity="0.30"/>
  <circle cx="100" cy="114" r="22" fill="none" stroke="#c89828" stroke-width="0.7" stroke-opacity="0.18"/><path d="M100 92 L104 110 L100 114 L96 110 Z M100 136 L104 118 L100 114 L96 118 Z M78 114 L96 110 L100 114 L96 118 Z M122 114 L104 110 L100 114 L104 118 Z" fill="#c89828" fill-opacity="0.126" stroke="#c89828" stroke-width="0.5" stroke-opacity="0.18"/>
  
  <ellipse cx="100" cy="64" rx="22" ry="24" fill="rgba(3,2,1,0.97)"/>
  <path d="M76 52 C68 40 65 28 74 22 C78 20 80 28 78 42" fill="rgba(3,2,1,0.97)"/>
  <rect x="93" y="86" width="14" height="13" rx="2" fill="rgba(3,2,1,0.97)"/>
  <path d="M26 132 C28 108 52 98 100 96 C148 98 172 108 174 132 L170 228 L30 228 Z" fill="rgba(3,2,1,0.97)"/>
  <ellipse cx="32" cy="124" rx="21" ry="13" fill="rgba(3,2,1,0.97)"/>
  <ellipse cx="168" cy="124" rx="21" ry="13" fill="rgba(3,2,1,0.97)"/>
  <rect x="72" y="176" width="56" height="5" rx="2" fill="rgba(5,3,1,0.90)"/>
  <path d="M84 98 Q100 106 116 98" fill="none" stroke="#c89828" stroke-width="0.9" stroke-opacity="0.14"/>
  <text x="100" y="254" text-anchor="middle" font-family="Georgia, serif" font-size="7" letter-spacing="2.5" fill="#c89828" fill-opacity="0.48">HUMAN</text>
</svg>