<svg viewBox="0 0 200 270" xmlns="http://www.w3.org/2000/svg">
  <defs>
    <radialGradient id="bg" cx="52%" cy="35%" r="68%">
      <stop offset="0%" stop-color="#0e1604"/>
      <stop offset="100%" stop-color="#060a02"/>
    </radialGradient>
  </defs>
  <rect width="200" height="270" fill="url(#bg)"/>
  <!-- outer frame -->
  <rect x="10" y="10" width="180" height="250" fill="none" stroke="#88b838" stroke-width="0.9" stroke-opacity="0.30"/>
  <rect x="14" y="14" width="172" height="242" fill="none" stroke="#88b838" stroke-width="0.4" stroke-opacity="0.14"/>
  <!-- corner ornaments -->
  <path d="M10 10 L10 24 M10 10 L24 10" stroke="#88b838" stroke-width="1.6" stroke-opacity="0.60" fill="none" stroke-linecap="round"/>
  <path d="M190 10 L190 24 M190 10 L176 10" stroke="#88b838" stroke-width="1.6" stroke-opacity="0.60" fill="none" stroke-linecap="round"/>
  <path d="M10 260 L10 246 M10 260 L24 260" stroke="#88b838" stroke-width="1.6" stroke-opacity="0.60" fill="none" stroke-linecap="round"/>
  <path d="M190 260 L190 246 M190 260 L176 260" stroke="#88b838" stroke-width="1.6" stroke-opacity="0.60" fill="none" stroke-linecap="round"/>
  <!-- arcane circles -->
  <circle cx="100" cy="148" r="80" fill="none" stroke="#88b838" stroke-width="0.6" stroke-opacity="0.14"/>
  <circle cx="100" cy="148" r="64" fill="none" stroke="#88b838" stroke-width="0.4" stroke-opacity="0.09"/>
  <line x1="100.0" y1="68.0" x2="100.0" y2="76.0" stroke="#88b838" stroke-width="0.9" stroke-opacity="0.28"/><line x1="156.6" y1="91.4" x2="150.9" y2="97.1" stroke="#88b838" stroke-width="0.9" stroke-opacity="0.28"/><line x1="180.0" y1="148.0" x2="172.0" y2="148.0" stroke="#88b838" stroke-width="0.9" stroke-opacity="0.28"/><line x1="156.6" y1="204.6" x2="150.9" y2="198.9" stroke="#88b838" stroke-width="0.9" stroke-opacity="0.28"/><line x1="100.0" y1="228.0" x2="100.0" y2="220.0" stroke="#88b838" stroke-width="0.9" stroke-opacity="0.28"/><line x1="43.4" y1="204.6" x2="49.1" y2="198.9" stroke="#88b838" stroke-width="0.9" stroke-opacity="0.28"/><line x1="20.0" y1="148.0" x2="28.0" y2="148.0" stroke="#88b838" stroke-width="0.9" stroke-opacity="0.28"/><line x1="43.4" y1="91.4" x2="49.1" y2="97.1" stroke="#88b838" stroke-width="0.9" stroke-opacity="0.28"/>
  <circle cx="100" cy="110" r="17" fill="#88b838" fill-opacity="0.05600000000000001" stroke="#88b838" stroke-width="0.9" stroke-opacity="0.2"/><ellipse cx="95" cy="112" rx="4" ry="5" fill="#88b838" fill-opacity="0.15000000000000002"/><ellipse cx="105" cy="112" rx="4" ry="5" fill="#88b838" fill-opacity="0.15000000000000002"/><path d="M93 122 L96 130 L100 125 L104 130 L107 122" fill="none" stroke="#88b838" stroke-width="0.9" stroke-opacity="0.2"/>
  
  <!-- short coarse hair -->
  <path d="M92 38 C80 34 68 38 64 48 C62 42 66 34 74 30 C82 26 92 30 98 36 Z" fill="rgba(3,2,1,0.97)"/>
  <!-- head profile (angular, jutting jaw) -->
  <path d="M94 38 C80 38 68 46 64 58 C60 70 62 82 66 92 C70 100 76 108 82 112 C86 116 90 118 94 118 C98 118 102 116 106 112 C110 106 112 96 110 84 C108 70 104 52 94 38 Z" fill="rgba(3,2,1,0.97)"/>
  <!-- flat broad nose -->
  <path d="M64 66 C60 72 60 80 62 84 C65 86 68 84 68 80" fill="rgba(3,2,1,0.97)"/>
  <!-- PROTRUDING LOWER JAW + TUSK (key racial feature) -->
  <path d="M64 96 C60 100 58 106 60 110 C66 108 70 104 72 100 Z" fill="rgba(3,2,1,0.97)"/>
  <path d="M62 110 C60 116 62 122 66 124 C68 120 68 114 66 110 Z" fill="rgba(3,2,1,0.97)"/>
  <!-- ear (slightly lower) -->
  <path d="M108 60 C112 60 114 66 114 72 C114 76 112 78 110 76 C108 74 108 64 108 60 Z" fill="rgba(3,2,1,0.97)"/>
  <!-- thick neck -->
  <path d="M80 114 C76 120 75 128 78 134 C82 138 88 140 94 140 C100 140 106 138 110 134 C113 128 112 120 108 114 C104 112 98 112 94 112 C89 112 84 112 80 114 Z" fill="rgba(3,2,1,0.97)"/>
  <!-- VERY WIDE shoulders / body -->
  <path d="M16 200 C14 164 32 144 62 134 C74 130 84 128 94 126 C108 128 122 132 136 136 C164 146 180 166 182 200 Z" fill="rgba(3,2,1,0.97)"/>
  <path d="M16 200 L12 228 L188 228 L182 200 Z" fill="rgba(5,3,1,0.88)"/>
  <text x="100" y="254" text-anchor="middle" font-family="Georgia,serif" font-size="7" letter-spacing="2.5" fill="#88b838" fill-opacity="0.50">ORC</text>
</svg>