<svg viewBox="0 0 200 270" xmlns="http://www.w3.org/2000/svg">
  <defs>
    <radialGradient id="bg" cx="50%" cy="36%" r="72%">
      <stop offset="0%" stop-color="#0c1404"/>
      <stop offset="100%" stop-color="#060a02"/>
    </radialGradient>
  </defs>
  <rect width="200" height="270" fill="url(#bg)"/>
  <rect x="10" y="10" width="180" height="250" fill="none" stroke="#80b840" stroke-width="0.9" stroke-opacity="0.28"/>
  <rect x="14" y="14" width="172" height="242" fill="none" stroke="#80b840" stroke-width="0.4" stroke-opacity="0.12"/>
  <path d="M10 10 L10 24 M10 10 L24 10" stroke="#80b840" stroke-width="1.5" stroke-opacity="0.65" fill="none" stroke-linecap="round"/>
  <path d="M190 10 L190 24 M190 10 L176 10" stroke="#80b840" stroke-width="1.5" stroke-opacity="0.65" fill="none" stroke-linecap="round"/>
  <path d="M10 260 L10 246 M10 260 L24 260" stroke="#80b840" stroke-width="1.5" stroke-opacity="0.65" fill="none" stroke-linecap="round"/>
  <path d="M190 260 L190 246 M190 260 L176 260" stroke="#80b840" stroke-width="1.5" stroke-opacity="0.65" fill="none" stroke-linecap="round"/>
  <circle cx="100" cy="148" r="80" fill="none" stroke="#80b840" stroke-width="0.6" stroke-opacity="0.14"/>
  <circle cx="100" cy="148" r="65" fill="none" stroke="#80b840" stroke-width="0.4" stroke-opacity="0.09"/>
  <line x1="100.0" y1="68.0" x2="100.0" y2="75.0" stroke="#80b840" stroke-width="0.8" stroke-opacity="0.30"/><line x1="156.6" y1="91.4" x2="151.6" y2="96.4" stroke="#80b840" stroke-width="0.8" stroke-opacity="0.30"/><line x1="180.0" y1="148.0" x2="173.0" y2="148.0" stroke="#80b840" stroke-width="0.8" stroke-opacity="0.30"/><line x1="156.6" y1="204.6" x2="151.6" y2="199.6" stroke="#80b840" stroke-width="0.8" stroke-opacity="0.30"/><line x1="100.0" y1="228.0" x2="100.0" y2="221.0" stroke="#80b840" stroke-width="0.8" stroke-opacity="0.30"/><line x1="43.4" y1="204.6" x2="48.4" y2="199.6" stroke="#80b840" stroke-width="0.8" stroke-opacity="0.30"/><line x1="20.0" y1="148.0" x2="27.0" y2="148.0" stroke="#80b840" stroke-width="0.8" stroke-opacity="0.30"/><line x1="43.4" y1="91.4" x2="48.4" y2="96.4" stroke="#80b840" stroke-width="0.8" stroke-opacity="0.30"/>
  <circle cx="100" cy="110" r="16" fill="#80b840" fill-opacity="0.054" stroke="#80b840" stroke-width="0.8" stroke-opacity="0.18"/><ellipse cx="95" cy="112" rx="4" ry="5" fill="#80b840" fill-opacity="0.126"/><ellipse cx="105" cy="112" rx="4" ry="5" fill="#80b840" fill-opacity="0.126"/><path d="M93 122 L95 128 L100 124 L105 128 L107 122" fill="none" stroke="#80b840" stroke-width="0.8" stroke-opacity="0.18"/>
  
  <path d="M72 76 C70 46 82 34 100 32 C118 34 130 46 128 76 C128 88 116 96 100 96 C84 96 72 88 72 76Z" fill="rgba(3,2,1,0.97)"/>
  <path d="M87 90 L83 102 L90 97Z" fill="rgba(3,2,1,0.97)"/>
  <path d="M113 90 L117 102 L110 97Z" fill="rgba(3,2,1,0.97)"/>
  <rect x="93" y="94" width="14" height="12" rx="2" fill="rgba(3,2,1,0.97)"/>
  <path d="M10 136 C12 108 44 97 100 95 C156 97 188 108 190 136 L184 228 L16 228 Z" fill="rgba(3,2,1,0.97)"/>
  <ellipse cx="16" cy="126" rx="24" ry="14" fill="rgba(3,2,1,0.97)"/>
  <ellipse cx="184" cy="126" rx="24" ry="14" fill="rgba(3,2,1,0.97)"/>
  <rect x="72" y="178" width="56" height="5" rx="2" fill="rgba(5,3,1,0.90)"/>
  <text x="100" y="254" text-anchor="middle" font-family="Georgia, serif" font-size="7" letter-spacing="2.5" fill="#80b840" fill-opacity="0.48">ORC</text>
</svg>