<svg viewBox="0 0 200 270" xmlns="http://www.w3.org/2000/svg">
  <defs>
    <radialGradient id="bg" cx="52%" cy="35%" r="68%">
      <stop offset="0%" stop-color="#041c22"/>
      <stop offset="100%" stop-color="#020e12"/>
    </radialGradient>
  </defs>
  <rect width="200" height="270" fill="url(#bg)"/>
  <!-- outer frame -->
  <rect x="10" y="10" width="180" height="250" fill="none" stroke="#78d8e0" stroke-width="0.9" stroke-opacity="0.30"/>
  <rect x="14" y="14" width="172" height="242" fill="none" stroke="#78d8e0" stroke-width="0.4" stroke-opacity="0.14"/>
  <!-- corner ornaments -->
  <path d="M10 10 L10 24 M10 10 L24 10" stroke="#78d8e0" stroke-width="1.6" stroke-opacity="0.60" fill="none" stroke-linecap="round"/>
  <path d="M190 10 L190 24 M190 10 L176 10" stroke="#78d8e0" stroke-width="1.6" stroke-opacity="0.60" fill="none" stroke-linecap="round"/>
  <path d="M10 260 L10 246 M10 260 L24 260" stroke="#78d8e0" stroke-width="1.6" stroke-opacity="0.60" fill="none" stroke-linecap="round"/>
  <path d="M190 260 L190 246 M190 260 L176 260" stroke="#78d8e0" stroke-width="1.6" stroke-opacity="0.60" fill="none" stroke-linecap="round"/>
  <!-- arcane circles -->
  <circle cx="100" cy="148" r="80" fill="none" stroke="#78d8e0" stroke-width="0.6" stroke-opacity="0.14"/>
  <circle cx="100" cy="148" r="64" fill="none" stroke="#78d8e0" stroke-width="0.4" stroke-opacity="0.09"/>
  <line x1="100.0" y1="68.0" x2="100.0" y2="76.0" stroke="#78d8e0" stroke-width="0.9" stroke-opacity="0.28"/><line x1="156.6" y1="91.4" x2="150.9" y2="97.1" stroke="#78d8e0" stroke-width="0.9" stroke-opacity="0.28"/><line x1="180.0" y1="148.0" x2="172.0" y2="148.0" stroke="#78d8e0" stroke-width="0.9" stroke-opacity="0.28"/><line x1="156.6" y1="204.6" x2="150.9" y2="198.9" stroke="#78d8e0" stroke-width="0.9" stroke-opacity="0.28"/><line x1="100.0" y1="228.0" x2="100.0" y2="220.0" stroke="#78d8e0" stroke-width="0.9" stroke-opacity="0.28"/><line x1="43.4" y1="204.6" x2="49.1" y2="198.9" stroke="#78d8e0" stroke-width="0.9" stroke-opacity="0.28"/><line x1="20.0" y1="148.0" x2="28.0" y2="148.0" stroke="#78d8e0" stroke-width="0.9" stroke-opacity="0.28"/><line x1="43.4" y1="91.4" x2="49.1" y2="97.1" stroke="#78d8e0" stroke-width="0.9" stroke-opacity="0.28"/>
  <path d="M100 86 C85 98 80 114 100 130 C120 114 115 98 100 86Z" fill="#78d8e0" fill-opacity="0.0704" stroke="#78d8e0" stroke-width="0.9" stroke-opacity="0.22"/><line x1="100" y1="86" x2="100" y2="130" stroke="#78d8e0" stroke-width="0.7" stroke-opacity="0.22"/>
  
  <!-- long flowing hair -->
  <path d="M102 32 C90 28 76 30 68 40 C60 52 58 70 60 88 C62 104 66 118 68 130 C64 126 58 114 56 98 C52 80 54 60 62 44 C70 28 88 24 100 28 Z" fill="rgba(3,2,1,0.97)"/>
  <!-- head profile (slender, refined) -->
  <path d="M102 32 C90 32 80 38 76 48 C72 58 72 70 76 80 C78 88 82 94 87 98 C90 102 94 104 98 104 C102 104 106 102 110 97 C113 90 114 80 112 68 C110 54 108 42 102 32 Z" fill="rgba(3,2,1,0.97)"/>
  <!-- elegant nose (slightly longer) -->
  <path d="M76 60 C73 65 71 70 73 75 C75 78 77 76 77 71" fill="rgba(3,2,1,0.97)"/>
  <!-- POINTED EAR - key racial feature -->
  <path d="M110 54 C116 50 122 46 126 40 C122 44 118 50 116 56 C118 60 116 64 112 66 C110 62 110 56 110 54 Z" fill="rgba(3,2,1,0.97)"/>
  <!-- neck (slender, long) -->
  <path d="M87 104 C85 112 85 122 88 128 C90 132 94 134 98 134 C102 134 106 132 108 128 C110 122 110 112 108 104 C104 102 100 102 98 102 C93 102 89 102 87 104 Z" fill="rgba(3,2,1,0.97)"/>
  <!-- shoulders (slender, graceful) -->
  <path d="M42 200 C40 168 52 148 74 138 C82 134 88 132 98 130 C108 132 118 136 128 140 C150 150 160 170 162 200 Z" fill="rgba(3,2,1,0.97)"/>
  <path d="M42 200 L38 228 L162 228 L162 200 Z" fill="rgba(5,3,1,0.88)"/>
  <!-- hair flowing down back -->
  <path d="M60 88 C56 106 56 124 60 138 C62 144 64 146 66 142 C62 128 62 110 64 96" fill="rgba(3,2,1,0.97)"/>
  <text x="100" y="254" text-anchor="middle" font-family="Georgia,serif" font-size="7" letter-spacing="2.5" fill="#78d8e0" fill-opacity="0.50">ELF</text>
</svg>