<svg viewBox="0 0 200 270" xmlns="http://www.w3.org/2000/svg">
  <defs>
    <radialGradient id="bg" cx="50%" cy="36%" r="72%">
      <stop offset="0%" stop-color="#041c10"/>
      <stop offset="100%" stop-color="#020e08"/>
    </radialGradient>
  </defs>
  <rect width="200" height="270" fill="url(#bg)"/>
  <rect x="10" y="10" width="180" height="250" fill="none" stroke="#50c888" stroke-width="0.9" stroke-opacity="0.28"/>
  <rect x="14" y="14" width="172" height="242" fill="none" stroke="#50c888" stroke-width="0.4" stroke-opacity="0.12"/>
  <path d="M10 10 L10 24 M10 10 L24 10" stroke="#50c888" stroke-width="1.5" stroke-opacity="0.65" fill="none" stroke-linecap="round"/>
  <path d="M190 10 L190 24 M190 10 L176 10" stroke="#50c888" stroke-width="1.5" stroke-opacity="0.65" fill="none" stroke-linecap="round"/>
  <path d="M10 260 L10 246 M10 260 L24 260" stroke="#50c888" stroke-width="1.5" stroke-opacity="0.65" fill="none" stroke-linecap="round"/>
  <path d="M190 260 L190 246 M190 260 L176 260" stroke="#50c888" stroke-width="1.5" stroke-opacity="0.65" fill="none" stroke-linecap="round"/>
  <circle cx="100" cy="148" r="80" fill="none" stroke="#50c888" stroke-width="0.6" stroke-opacity="0.14"/>
  <circle cx="100" cy="148" r="65" fill="none" stroke="#50c888" stroke-width="0.4" stroke-opacity="0.09"/>
  <line x1="100.0" y1="68.0" x2="100.0" y2="75.0" stroke="#50c888" stroke-width="0.8" stroke-opacity="0.30"/><line x1="156.6" y1="91.4" x2="151.6" y2="96.4" stroke="#50c888" stroke-width="0.8" stroke-opacity="0.30"/><line x1="180.0" y1="148.0" x2="173.0" y2="148.0" stroke="#50c888" stroke-width="0.8" stroke-opacity="0.30"/><line x1="156.6" y1="204.6" x2="151.6" y2="199.6" stroke="#50c888" stroke-width="0.8" stroke-opacity="0.30"/><line x1="100.0" y1="228.0" x2="100.0" y2="221.0" stroke="#50c888" stroke-width="0.8" stroke-opacity="0.30"/><line x1="43.4" y1="204.6" x2="48.4" y2="199.6" stroke="#50c888" stroke-width="0.8" stroke-opacity="0.30"/><line x1="20.0" y1="148.0" x2="27.0" y2="148.0" stroke="#50c888" stroke-width="0.8" stroke-opacity="0.30"/><line x1="43.4" y1="91.4" x2="48.4" y2="96.4" stroke="#50c888" stroke-width="0.8" stroke-opacity="0.30"/>
  <rect x="98" y="86" width="4" height="8" rx="1" fill="#50c888" fill-opacity="0.18" transform="rotate(0 100 116)"/><rect x="98" y="86" width="4" height="8" rx="1" fill="#50c888" fill-opacity="0.18" transform="rotate(36 100 116)"/><rect x="98" y="86" width="4" height="8" rx="1" fill="#50c888" fill-opacity="0.18" transform="rotate(72 100 116)"/><rect x="98" y="86" width="4" height="8" rx="1" fill="#50c888" fill-opacity="0.18" transform="rotate(108 100 116)"/><rect x="98" y="86" width="4" height="8" rx="1" fill="#50c888" fill-opacity="0.18" transform="rotate(144 100 116)"/><rect x="98" y="86" width="4" height="8" rx="1" fill="#50c888" fill-opacity="0.18" transform="rotate(180 100 116)"/><rect x="98" y="86" width="4" height="8" rx="1" fill="#50c888" fill-opacity="0.18" transform="rotate(216 100 116)"/><rect x="98" y="86" width="4" height="8" rx="1" fill="#50c888" fill-opacity="0.18" transform="rotate(252 100 116)"/><rect x="98" y="86" width="4" height="8" rx="1" fill="#50c888" fill-opacity="0.18" transform="rotate(288 100 116)"/><rect x="98" y="86" width="4" height="8" rx="1" fill="#50c888" fill-opacity="0.18" transform="rotate(324 100 116)"/><circle cx="100" cy="116" r="18" fill="none" stroke="#50c888" stroke-width="1.0" stroke-opacity="0.18"/><circle cx="100" cy="116" r="8" fill="#50c888" fill-opacity="0.072"/>
  
  <ellipse cx="100" cy="76" rx="20" ry="22" fill="rgba(3,2,1,0.97)"/>
  <path d="M80 64 C72 52 72 65 76 76 C78 82 82 84 84 80" fill="rgba(3,2,1,0.97)"/>
  <rect x="93" y="96" width="14" height="10" rx="2" fill="rgba(3,2,1,0.97)"/>
  <path d="M38 136 C40 118 62 108 100 106 C138 108 160 118 162 136 L158 228 L42 228 Z" fill="rgba(3,2,1,0.97)"/>
  <ellipse cx="44" cy="130" rx="17" ry="11" fill="rgba(3,2,1,0.97)"/>
  <ellipse cx="156" cy="130" rx="17" ry="11" fill="rgba(3,2,1,0.97)"/>
  <rect x="72" y="180" width="56" height="5" rx="2" fill="rgba(5,3,1,0.90)"/>
  <text x="100" y="254" text-anchor="middle" font-family="Georgia, serif" font-size="7" letter-spacing="2.5" fill="#50c888" fill-opacity="0.48">GNOME</text>
</svg>