<svg viewBox="0 0 200 270" xmlns="http://www.w3.org/2000/svg">
  <defs>
    <radialGradient id="bg" cx="52%" cy="35%" r="68%">
      <stop offset="0%" stop-color="#181008"/>
      <stop offset="100%" stop-color="#0c0804"/>
    </radialGradient>
  </defs>
  <rect width="200" height="270" fill="url(#bg)"/>
  <!-- outer frame -->
  <rect x="10" y="10" width="180" height="250" fill="none" stroke="#c8a050" stroke-width="0.9" stroke-opacity="0.30"/>
  <rect x="14" y="14" width="172" height="242" fill="none" stroke="#c8a050" stroke-width="0.4" stroke-opacity="0.14"/>
  <!-- corner ornaments -->
  <path d="M10 10 L10 24 M10 10 L24 10" stroke="#c8a050" stroke-width="1.6" stroke-opacity="0.60" fill="none" stroke-linecap="round"/>
  <path d="M190 10 L190 24 M190 10 L176 10" stroke="#c8a050" stroke-width="1.6" stroke-opacity="0.60" fill="none" stroke-linecap="round"/>
  <path d="M10 260 L10 246 M10 260 L24 260" stroke="#c8a050" stroke-width="1.6" stroke-opacity="0.60" fill="none" stroke-linecap="round"/>
  <path d="M190 260 L190 246 M190 260 L176 260" stroke="#c8a050" stroke-width="1.6" stroke-opacity="0.60" fill="none" stroke-linecap="round"/>
  <!-- arcane circles -->
  <circle cx="100" cy="148" r="80" fill="none" stroke="#c8a050" stroke-width="0.6" stroke-opacity="0.14"/>
  <circle cx="100" cy="148" r="64" fill="none" stroke="#c8a050" stroke-width="0.4" stroke-opacity="0.09"/>
  <line x1="100.0" y1="68.0" x2="100.0" y2="76.0" stroke="#c8a050" stroke-width="0.9" stroke-opacity="0.28"/><line x1="156.6" y1="91.4" x2="150.9" y2="97.1" stroke="#c8a050" stroke-width="0.9" stroke-opacity="0.28"/><line x1="180.0" y1="148.0" x2="172.0" y2="148.0" stroke="#c8a050" stroke-width="0.9" stroke-opacity="0.28"/><line x1="156.6" y1="204.6" x2="150.9" y2="198.9" stroke="#c8a050" stroke-width="0.9" stroke-opacity="0.28"/><line x1="100.0" y1="228.0" x2="100.0" y2="220.0" stroke="#c8a050" stroke-width="0.9" stroke-opacity="0.28"/><line x1="43.4" y1="204.6" x2="49.1" y2="198.9" stroke="#c8a050" stroke-width="0.9" stroke-opacity="0.28"/><line x1="20.0" y1="148.0" x2="28.0" y2="148.0" stroke="#c8a050" stroke-width="0.9" stroke-opacity="0.28"/><line x1="43.4" y1="91.4" x2="49.1" y2="97.1" stroke="#c8a050" stroke-width="0.9" stroke-opacity="0.28"/>
  <path d="M100.0,88.0 L105.0,104.0 L119.8,96.2 L112.0,111.0 L128.0,116.0 L112.0,121.0 L119.8,135.8 L105.0,128.0 L100.0,144.0 L95.0,128.0 L80.2,135.8 L88.0,121.0 L72.0,116.0 L88.0,111.0 L80.2,96.2 L95.0,104.0 Z" fill="#c8a050" fill-opacity="0.06999999999999999" stroke="#c8a050" stroke-width="0.7" stroke-opacity="0.2"/>
  
  <!-- hair flowing behind -->
  <path d="M100 34 C90 30 78 32 72 40 C66 50 64 64 66 78 C68 88 72 96 76 102 C70 100 62 94 58 82 C54 68 56 52 64 40 C72 28 86 26 96 30 Z" fill="rgba(3,2,1,0.97)"/>
  <!-- head profile (facing left) -->
  <path d="M100 34 C88 34 78 40 74 50 C70 60 70 72 74 80 C76 86 80 92 84 96 C88 100 92 102 96 102 C100 102 104 100 108 96 C112 90 114 82 112 72 C110 60 106 46 100 34 Z" fill="rgba(3,2,1,0.97)"/>
  <!-- nose -->
  <path d="M74 62 C72 66 70 70 72 74 C74 76 76 74 76 70" fill="rgba(3,2,1,0.97)"/>
  <!-- ear -->
  <path d="M108 58 C112 58 114 62 114 66 C114 70 112 72 110 72 C108 70 108 62 108 58 Z" fill="rgba(3,2,1,0.97)"/>
  <!-- neck -->
  <path d="M84 102 C82 108 82 116 84 122 C86 126 90 128 96 128 C102 128 106 126 108 122 C110 116 110 108 108 102 C104 100 100 100 96 100 C92 100 88 100 84 102 Z" fill="rgba(3,2,1,0.97)"/>
  <!-- shoulders and torso -->
  <path d="M40 200 C38 170 50 148 72 138 C80 134 86 132 96 130 C106 132 116 136 126 140 C148 150 158 172 160 200 Z" fill="rgba(3,2,1,0.97)"/>
  <!-- pauldron near side -->
  <path d="M40 200 L36 228 L164 228 L160 200 Z" fill="rgba(5,3,1,0.88)"/>
  <!-- hair detail -->
  <path d="M66 78 C60 90 58 104 62 116 C64 122 66 124 68 120 C64 108 64 96 68 84" fill="rgba(3,2,1,0.97)"/>
  <text x="100" y="254" text-anchor="middle" font-family="Georgia,serif" font-size="7" letter-spacing="2.5" fill="#c8a050" fill-opacity="0.50">UNKNOWN</text>
</svg>