<svg viewBox="0 0 200 270" xmlns="http://www.w3.org/2000/svg">
  <defs>
    <radialGradient id="bg" cx="52%" cy="35%" r="68%">
      <stop offset="0%" stop-color="#1e0a02"/>
      <stop offset="100%" stop-color="#120602"/>
    </radialGradient>
  </defs>
  <rect width="200" height="270" fill="url(#bg)"/>
  <!-- outer frame -->
  <rect x="10" y="10" width="180" height="250" fill="none" stroke="#d4a020" stroke-width="0.9" stroke-opacity="0.30"/>
  <rect x="14" y="14" width="172" height="242" fill="none" stroke="#d4a020" stroke-width="0.4" stroke-opacity="0.14"/>
  <!-- corner ornaments -->
  <path d="M10 10 L10 24 M10 10 L24 10" stroke="#d4a020" stroke-width="1.6" stroke-opacity="0.60" fill="none" stroke-linecap="round"/>
  <path d="M190 10 L190 24 M190 10 L176 10" stroke="#d4a020" stroke-width="1.6" stroke-opacity="0.60" fill="none" stroke-linecap="round"/>
  <path d="M10 260 L10 246 M10 260 L24 260" stroke="#d4a020" stroke-width="1.6" stroke-opacity="0.60" fill="none" stroke-linecap="round"/>
  <path d="M190 260 L190 246 M190 260 L176 260" stroke="#d4a020" stroke-width="1.6" stroke-opacity="0.60" fill="none" stroke-linecap="round"/>
  <!-- arcane circles -->
  <circle cx="100" cy="148" r="80" fill="none" stroke="#d4a020" stroke-width="0.6" stroke-opacity="0.14"/>
  <circle cx="100" cy="148" r="64" fill="none" stroke="#d4a020" stroke-width="0.4" stroke-opacity="0.09"/>
  <line x1="100.0" y1="68.0" x2="100.0" y2="76.0" stroke="#d4a020" stroke-width="0.9" stroke-opacity="0.28"/><line x1="156.6" y1="91.4" x2="150.9" y2="97.1" stroke="#d4a020" stroke-width="0.9" stroke-opacity="0.28"/><line x1="180.0" y1="148.0" x2="172.0" y2="148.0" stroke="#d4a020" stroke-width="0.9" stroke-opacity="0.28"/><line x1="156.6" y1="204.6" x2="150.9" y2="198.9" stroke="#d4a020" stroke-width="0.9" stroke-opacity="0.28"/><line x1="100.0" y1="228.0" x2="100.0" y2="220.0" stroke="#d4a020" stroke-width="0.9" stroke-opacity="0.28"/><line x1="43.4" y1="204.6" x2="49.1" y2="198.9" stroke="#d4a020" stroke-width="0.9" stroke-opacity="0.28"/><line x1="20.0" y1="148.0" x2="28.0" y2="148.0" stroke="#d4a020" stroke-width="0.9" stroke-opacity="0.28"/><line x1="43.4" y1="91.4" x2="49.1" y2="97.1" stroke="#d4a020" stroke-width="0.9" stroke-opacity="0.28"/>
  <path d="M100 86 C87 96 80 110 84 122 C88 132 96 134 100 134 C104 134 112 132 116 122 C120 110 113 96 100 86Z" fill="#d4a020" fill-opacity="0.06" stroke="#d4a020" stroke-width="0.9" stroke-opacity="0.2"/><path d="M93 86 L87 76 M107 86 L113 76 M100 86 L100 75" stroke="#d4a020" stroke-width="1.1" stroke-opacity="0.2" stroke-linecap="round"/>
  
  <!-- no hair — head plates / crown -->
  <path d="M94 38 C84 34 74 38 70 48 C72 40 78 34 86 32 C92 30 98 32 104 36 Z" fill="rgba(3,2,1,0.97)"/>
  <!-- HEAD (reptilian — longer snout, angular) -->
  <path d="M96 38 C82 38 70 46 66 58 C62 68 62 80 66 90 C70 98 76 106 82 110 C79 104 76 96 76 88 C74 78 76 68 80 62 C82 70 84 80 86 86 C88 92 90 98 92 104 C96 108 100 110 104 106 C108 100 111 92 112 82 C114 70 110 54 96 38 Z" fill="rgba(3,2,1,0.97)"/>
  <!-- SNOUT protruding (key racial feature) -->
  <path d="M66 72 C60 74 56 78 56 84 C56 90 60 94 66 96 C64 90 62 84 64 78 Z" fill="rgba(3,2,1,0.97)"/>
  <path d="M66 96 C60 100 58 106 60 110 C64 106 68 100 68 96 Z" fill="rgba(3,2,1,0.97)"/>
  <!-- nostrils hint -->
  <path d="M60 82 L58 85 M62 80 L60 83" stroke="rgba(3,2,1,0.97)" stroke-width="2" stroke-linecap="round"/>
  <!-- neck ridge (scales running down back of neck) -->
  <path d="M108 58 C114 56 118 58 120 64 C118 62 116 62 114 64 C116 68 116 72 114 76 C112 72 112 68 114 64" fill="rgba(3,2,1,0.97)"/>
  <!-- neck (thick, strong) -->
  <path d="M82 108 C78 116 78 126 82 132 C86 136 92 138 98 138 C104 138 110 136 114 132 C118 126 118 116 114 108 C110 106 104 106 98 106 C92 106 86 106 82 108 Z" fill="rgba(3,2,1,0.97)"/>
  <!-- powerful broad shoulders -->
  <path d="M26 200 C24 166 40 146 68 136 C78 132 88 130 98 128 C110 130 122 134 136 138 C162 148 176 168 178 200 Z" fill="rgba(3,2,1,0.97)"/>
  <path d="M26 200 L22 228 L178 228 L178 200 Z" fill="rgba(5,3,1,0.88)"/>
  <text x="100" y="254" text-anchor="middle" font-family="Georgia,serif" font-size="7" letter-spacing="2.5" fill="#d4a020" fill-opacity="0.50">DRAGONBORN</text>
</svg>