<svg viewBox="0 0 200 270" xmlns="http://www.w3.org/2000/svg">
  <defs>
    <radialGradient id="bg" cx="52%" cy="35%" r="68%">
      <stop offset="0%" stop-color="#0e0620"/>
      <stop offset="100%" stop-color="#06030e"/>
    </radialGradient>
  </defs>
  <rect width="200" height="270" fill="url(#bg)"/>
  <!-- outer frame -->
  <rect x="10" y="10" width="180" height="250" fill="none" stroke="#9058d8" stroke-width="0.9" stroke-opacity="0.30"/>
  <rect x="14" y="14" width="172" height="242" fill="none" stroke="#9058d8" stroke-width="0.4" stroke-opacity="0.14"/>
  <!-- corner ornaments -->
  <path d="M10 10 L10 24 M10 10 L24 10" stroke="#9058d8" stroke-width="1.6" stroke-opacity="0.60" fill="none" stroke-linecap="round"/>
  <path d="M190 10 L190 24 M190 10 L176 10" stroke="#9058d8" stroke-width="1.6" stroke-opacity="0.60" fill="none" stroke-linecap="round"/>
  <path d="M10 260 L10 246 M10 260 L24 260" stroke="#9058d8" stroke-width="1.6" stroke-opacity="0.60" fill="none" stroke-linecap="round"/>
  <path d="M190 260 L190 246 M190 260 L176 260" stroke="#9058d8" stroke-width="1.6" stroke-opacity="0.60" fill="none" stroke-linecap="round"/>
  <!-- arcane circles -->
  <circle cx="100" cy="148" r="80" fill="none" stroke="#9058d8" stroke-width="0.6" stroke-opacity="0.14"/>
  <circle cx="100" cy="148" r="64" fill="none" stroke="#9058d8" stroke-width="0.4" stroke-opacity="0.09"/>
  <line x1="100.0" y1="68.0" x2="100.0" y2="76.0" stroke="#9058d8" stroke-width="0.9" stroke-opacity="0.28"/><line x1="156.6" y1="91.4" x2="150.9" y2="97.1" stroke="#9058d8" stroke-width="0.9" stroke-opacity="0.28"/><line x1="180.0" y1="148.0" x2="172.0" y2="148.0" stroke="#9058d8" stroke-width="0.9" stroke-opacity="0.28"/><line x1="156.6" y1="204.6" x2="150.9" y2="198.9" stroke="#9058d8" stroke-width="0.9" stroke-opacity="0.28"/><line x1="100.0" y1="228.0" x2="100.0" y2="220.0" stroke="#9058d8" stroke-width="0.9" stroke-opacity="0.28"/><line x1="43.4" y1="204.6" x2="49.1" y2="198.9" stroke="#9058d8" stroke-width="0.9" stroke-opacity="0.28"/><line x1="20.0" y1="148.0" x2="28.0" y2="148.0" stroke="#9058d8" stroke-width="0.9" stroke-opacity="0.28"/><line x1="43.4" y1="91.4" x2="49.1" y2="97.1" stroke="#9058d8" stroke-width="0.9" stroke-opacity="0.28"/>
  <line x1="100" y1="116" x2="100.0" y2="86.0" stroke="#9058d8" stroke-width="0.7" stroke-opacity="0.22"/><line x1="100" y1="116" x2="126.0" y2="101.0" stroke="#9058d8" stroke-width="0.7" stroke-opacity="0.22"/><line x1="100" y1="116" x2="126.0" y2="131.0" stroke="#9058d8" stroke-width="0.7" stroke-opacity="0.22"/><line x1="100" y1="116" x2="100.0" y2="146.0" stroke="#9058d8" stroke-width="0.7" stroke-opacity="0.22"/><line x1="100" y1="116" x2="74.0" y2="131.0" stroke="#9058d8" stroke-width="0.7" stroke-opacity="0.22"/><line x1="100" y1="116" x2="74.0" y2="101.0" stroke="#9058d8" stroke-width="0.7" stroke-opacity="0.22"/><circle cx="100" cy="116" r="9" fill="none" stroke="#9058d8" stroke-width="0.6" stroke-opacity="0.22"/><circle cx="100" cy="116" r="17" fill="none" stroke="#9058d8" stroke-width="0.6" stroke-opacity="0.22"/><circle cx="100" cy="116" r="26" fill="none" stroke="#9058d8" stroke-width="0.6" stroke-opacity="0.22"/>
  
  <!-- short angular hair -->
  <path d="M100 32 C90 28 78 30 72 38 C66 48 64 62 66 76 C68 66 72 58 78 52 C84 46 92 42 100 40 Z" fill="rgba(3,2,1,0.97)"/>
  <path d="M100 32 C108 28 116 32 118 42 C114 38 108 36 102 38 Z" fill="rgba(3,2,1,0.97)"/>
  <!-- head profile (angular jaw) -->
  <path d="M100 32 C88 32 78 38 74 48 C70 58 70 70 74 80 C76 88 81 95 86 98 C90 102 94 104 98 104 C102 104 106 101 109 96 C112 88 113 78 111 66 C109 52 106 42 100 32 Z" fill="rgba(3,2,1,0.97)"/>
  <!-- angular nose -->
  <path d="M74 60 C72 65 70 70 72 74 C74 76 75 74 75 70" fill="rgba(3,2,1,0.97)"/>
  <!-- POINTED EAR angled back sharply -->
  <path d="M109 52 C116 46 124 40 128 32 C124 38 118 46 116 54 C118 58 116 62 112 64 C110 60 110 54 109 52 Z" fill="rgba(3,2,1,0.97)"/>
  <!-- neck -->
  <path d="M86 100 C84 108 84 118 87 124 C89 128 93 130 98 130 C103 130 107 128 109 124 C111 118 111 108 109 100 C105 98 101 98 98 98 C94 98 89 98 86 100 Z" fill="rgba(3,2,1,0.97)"/>
  <!-- shoulders (slender) -->
  <path d="M40 200 C38 168 52 148 74 138 C82 134 88 132 98 130 C108 132 118 136 128 140 C150 150 160 170 162 200 Z" fill="rgba(3,2,1,0.97)"/>
  <path d="M40 200 L36 228 L164 228 L164 200 Z" fill="rgba(5,3,1,0.88)"/>
  <text x="100" y="254" text-anchor="middle" font-family="Georgia,serif" font-size="7" letter-spacing="2.5" fill="#9058d8" fill-opacity="0.50">DARK ELF</text>
</svg>