<svg viewBox="0 0 200 270" xmlns="http://www.w3.org/2000/svg">
  <defs>
    <radialGradient id="bg" cx="50%" cy="36%" r="72%">
      <stop offset="0%" stop-color="#1c1006"/>
      <stop offset="100%" stop-color="#0c0804"/>
    </radialGradient>
  </defs>
  <rect width="200" height="270" fill="url(#bg)"/>
  <rect x="10" y="10" width="180" height="250" fill="none" stroke="#d09050" stroke-width="0.9" stroke-opacity="0.28"/>
  <rect x="14" y="14" width="172" height="242" fill="none" stroke="#d09050" stroke-width="0.4" stroke-opacity="0.12"/>
  <path d="M10 10 L10 24 M10 10 L24 10" stroke="#d09050" stroke-width="1.5" stroke-opacity="0.65" fill="none" stroke-linecap="round"/>
  <path d="M190 10 L190 24 M190 10 L176 10" stroke="#d09050" stroke-width="1.5" stroke-opacity="0.65" fill="none" stroke-linecap="round"/>
  <path d="M10 260 L10 246 M10 260 L24 260" stroke="#d09050" stroke-width="1.5" stroke-opacity="0.65" fill="none" stroke-linecap="round"/>
  <path d="M190 260 L190 246 M190 260 L176 260" stroke="#d09050" stroke-width="1.5" stroke-opacity="0.65" fill="none" stroke-linecap="round"/>
  <circle cx="100" cy="148" r="80" fill="none" stroke="#d09050" stroke-width="0.6" stroke-opacity="0.14"/>
  <circle cx="100" cy="148" r="65" fill="none" stroke="#d09050" stroke-width="0.4" stroke-opacity="0.09"/>
  <line x1="100.0" y1="68.0" x2="100.0" y2="75.0" stroke="#d09050" stroke-width="0.8" stroke-opacity="0.30"/><line x1="156.6" y1="91.4" x2="151.6" y2="96.4" stroke="#d09050" stroke-width="0.8" stroke-opacity="0.30"/><line x1="180.0" y1="148.0" x2="173.0" y2="148.0" stroke="#d09050" stroke-width="0.8" stroke-opacity="0.30"/><line x1="156.6" y1="204.6" x2="151.6" y2="199.6" stroke="#d09050" stroke-width="0.8" stroke-opacity="0.30"/><line x1="100.0" y1="228.0" x2="100.0" y2="221.0" stroke="#d09050" stroke-width="0.8" stroke-opacity="0.30"/><line x1="43.4" y1="204.6" x2="48.4" y2="199.6" stroke="#d09050" stroke-width="0.8" stroke-opacity="0.30"/><line x1="20.0" y1="148.0" x2="27.0" y2="148.0" stroke="#d09050" stroke-width="0.8" stroke-opacity="0.30"/><line x1="43.4" y1="91.4" x2="48.4" y2="96.4" stroke="#d09050" stroke-width="0.8" stroke-opacity="0.30"/>
  <path d="M100.0,88.0 L109.2,106.8 L128.0,116.0 L109.2,125.2 L100.0,144.0 L90.8,125.2 L72.0,116.0 L90.8,106.8 L100.0,88.0 L109.2,106.8 L128.0,116.0 L109.2,125.2 L100.0,144.0 L90.8,125.2 L72.0,116.0 L90.8,106.8 Z" fill="#d09050" fill-opacity="0.063" stroke="#d09050" stroke-width="0.7" stroke-opacity="0.18"/>
  
  <ellipse cx="100" cy="78" rx="20" ry="21" fill="rgba(3,2,1,0.97)"/>
  <path d="M80 66 C72 56 70 68 74 78 C76 84 80 86 83 82" fill="rgba(3,2,1,0.97)"/>
  <rect x="93" y="97" width="14" height="10" rx="2" fill="rgba(3,2,1,0.97)"/>
  <path d="M36 134 C38 116 60 106 100 104 C140 106 162 116 164 134 L160 228 L40 228 Z" fill="rgba(3,2,1,0.97)"/>
  <ellipse cx="42" cy="128" rx="18" ry="11" fill="rgba(3,2,1,0.97)"/>
  <ellipse cx="158" cy="128" rx="18" ry="11" fill="rgba(3,2,1,0.97)"/>
  <rect x="72" y="178" width="56" height="5" rx="2" fill="rgba(5,3,1,0.90)"/>
  <text x="100" y="254" text-anchor="middle" font-family="Georgia, serif" font-size="7" letter-spacing="2.5" fill="#d09050" fill-opacity="0.48">HALFLING</text>
</svg>